PathFileType	4	(X/Y/Z)	Exemple_fichier.trc																																					
DataRate	CameraRate	NumFrames	NumMarkers	Units	OrigDataRate	OrigDataStartFrame	OrigNumFrames																																	
100	100	20	13	m	100	126	1000																																	
Frame#	Time	C7			T10			CLAV			STRN			RSHO			RUPA			RELB			RFRA			RWRA			RWRB			RFIN0			RFINx			RFINy		
		X1	Y1	Z1	X2	Y2	Z2	X3	Y3	Z3	X4	Y4	Z4	X5	Y5	Z5	X6	Y6	Z6	X7	Y7	Z7	X8	Y8	Z8	X9	Y9	Z9	X10	Y10	Z10	X11	Y11	Z11	X12	Y12	Z12	X13	Y13	Z13
																																								
126	1.25	0.43704	1.291154	-0.09408436	0.4379828	1.152624	-0.06065037	0.4530755	1.230217	-0.2180692	0.4566096	1.097463	-0.3225984	0.5976002	1.258774	-0.1603614	0.6951618	1.073396	-0.2007637	0.7244109	0.9931602	-0.1877789	0.6905404	1.080807	-0.3270603	0.6487815	1.109916	-0.3629943	0.6834972	1.08767	-0.3887437	0.6766234	1.118034	-0.431685	0.6765435	1.133668	-0.4454014	0.6690537	1.140229	-0.4107376
127	1.26	0.4363597	1.290985	-0.09359086	0.4375274	1.152378	-0.0604555	0.4525869	1.230404	-0.2177144	0.4563486	1.097776	-0.3224141	0.5968588	1.259277	-0.1597501	0.696917	1.077066	-0.2041639	0.7273602	0.9969916	-0.1939764	0.6923493	1.089164	-0.3301239	0.6498442	1.118411	-0.3652842	0.6857465	1.098432	-0.391541	0.6780954	1.130405	-0.4333003	0.6774939	1.146591	-0.4463259	0.6694228	1.151427	-0.4115036
128	1.27	0.4357004	1.290813	-0.09312233	0.4371004	1.152132	-0.06027879	0.4521135	1.230586	-0.217385	0.4560893	1.098089	-0.3222346	0.5961193	1.259783	-0.1591662	0.698643	1.080893	-0.2075115	0.7303102	1.001122	-0.2000986	0.6940031	1.097564	-0.3330245	0.6507662	1.126875	-0.3674567	0.6877551	1.109159	-0.3940953	0.6792905	1.142611	-0.4346421	0.6781813	1.159284	-0.4469868	0.6695726	1.16242	-0.4120924
129	1.28	0.4350651	1.290639	-0.09268384	0.4367059	1.15189	-0.06012108	0.4516537	1.230764	-0.2170865	0.4558273	1.098398	-0.3220646	0.5953842	1.260301	-0.15862	0.7003262	1.084871	-0.2107886	0.7332484	1.005546	-0.2061029	0.6954961	1.105976	-0.3357496	0.6515448	1.135274	-0.3695127	0.6895259	1.119808	-0.3964053	0.6802187	1.154608	-0.4357235	0.6786088	1.171702	-0.4474046	0.6695044	1.173172	-0.4125202
130	1.29	0.4344554	1.290467	-0.09227979	0.4363465	1.151656	-0.05998419	0.4512049	1.230937	-0.2168232	0.455558	1.098703	-0.3219085	0.5946565	1.260835	-0.1581221	0.701958	1.088997	-0.21398	0.7361645	1.010253	-0.2119513	0.6968253	1.114374	-0.3382928	0.6521788	1.143576	-0.3714582	0.691064	1.130343	-0.398474	0.6808944	1.16636	-0.4365616	0.6787835	1.18381	-0.4476013	0.6692215	1.183655	-0.4128049
131	1.3	0.4338721	1.290298	-0.0919138	0.4360228	1.151434	-0.05987094	0.4507643	1.231105	-0.216598	0.4552779	1.099003	-0.3217704	0.5939379	1.261392	-0.1576819	0.703536	1.093266	-0.2170726	0.7390508	1.015232	-0.2176107	0.6979904	1.122731	-0.340654	0.6526687	1.151749	-0.3733029	0.6923754	1.140727	-0.400309	0.6813335	1.177836	-0.4371771	0.6787155	1.19558	-0.4476002	0.6687302	1.193842	-0.4129651
132	1.31	0.4333157	1.290136	-0.09158828	0.4357334	1.151228	-0.05978384	0.4503289	1.231269	-0.216412	0.454984	1.099299	-0.3216538	0.5932287	1.261974	-0.1573062	0.705062	1.097671	-0.2200549	0.7419016	1.020468	-0.2230528	0.6989937	1.131017	-0.3428389	0.6530184	1.159764	-0.3750594	0.6934663	1.150926	-0.4019226	0.6815515	1.189009	-0.437594	0.6784166	1.206987	-0.4474261	0.6680396	1.203712	-0.4130201
133	1.32	0.4327868	1.289984	-0.09130385	0.435475	1.151039	-0.05972417	0.4498964	1.231429	-0.2162651	0.4546749	1.099591	-0.3215611	0.5925273	1.262582	-0.1569984	0.7065383	1.102201	-0.2229163	0.7447127	1.025941	-0.2282539	0.6998389	1.139204	-0.3448585	0.6532347	1.167594	-0.3767419	0.6943426	1.160906	-0.403331	0.6815612	1.199851	-0.4378393	0.6779005	1.218012	-0.4471052	0.6671624	1.213243	-0.4129895
134	1.33	0.4322856	1.289841	-0.09105927	0.4352444	1.15087	-0.05969179	0.4494645	1.231587	-0.2161559	0.4543508	1.099881	-0.3214939	0.5918305	1.263215	-0.1567594	0.7079642	1.106843	-0.2256469	0.7474799	1.031628	-0.2331951	0.7005307	1.147259	-0.3467277	0.6533271	1.175217	-0.3783652	0.695011	1.170634	-0.4045544	0.6813737	1.21034	-0.4379416	0.6771817	1.228634	-0.446665	0.6661156	1.222414	-0.4128928
135	1.34	0.4318121	1.28971	-0.09085162	0.4350406	1.150723	-0.05968534	0.4490317	1.231744	-0.2160823	0.4540142	1.100171	-0.3214528	0.5911335	1.263869	-0.1565878	0.7093367	1.111578	-0.2282387	0.7501983	1.037501	-0.2378622	0.7010757	1.15515	-0.3484643	0.6533067	1.182609	-0.3799438	0.6954804	1.180078	-0.4056164	0.6809996	1.220449	-0.4379303	0.6762764	1.238835	-0.4461338	0.6649196	1.231207	-0.41275
136	1.35	0.4313668	1.28959	-0.09067671	0.4348646	1.150599	-0.05970279	0.4485966	1.2319	-0.2160404	0.4536686	1.100462	-0.3214366	0.5904309	1.26454	-0.1564816	0.7106524	1.116384	-0.2306859	0.7528624	1.043529	-0.2422463	0.701483	1.162849	-0.3500864	0.6531849	1.189754	-0.3814906	0.6957639	1.189212	-0.4065433	0.6804514	1.230158	-0.4378347	0.6752012	1.248599	-0.4455392	0.6635986	1.239609	-0.4125804
137	1.36	0.4309511	1.289481	-0.09052993	0.434718	1.150495	-0.05974192	0.4481585	1.232057	-0.2160257	0.453318	1.100756	-0.3214425	0.5897184	1.265222	-0.1564376	0.7119087	1.121241	-0.2329858	0.7554656	1.04968	-0.246344	0.7017641	1.170332	-0.3516101	0.6529733	1.196639	-0.3830156	0.695881	1.198018	-0.4073638	0.6797432	1.239451	-0.4376821	0.6739742	1.257915	-0.4449072	0.6621781	1.247608	-0.412403
138	1.37	0.4305675	1.289381	-0.09040678	0.4346031	1.150411	-0.05980006	0.4477174	1.232213	-0.2160327	0.4529631	1.101055	-0.3214663	0.5889944	1.265912	-0.1564527	0.713104	1.126123	-0.235138	0.7579997	1.055917	-0.2501574	0.7019315	1.177583	-0.3530486	0.6526819	1.203257	-0.3845239	0.6958547	1.206487	-0.4081058	0.6788893	1.248315	-0.4374964	0.6726139	1.266775	-0.4442607	0.6606827	1.255202	-0.4122352
139	1.38	0.4302196	1.289291	-0.09030282	0.434523	1.150343	-0.05987345	0.4472736	1.232367	-0.2160556	0.452599	1.101359	-0.3215025	0.5882601	1.266605	-0.1565237	0.714236	1.131005	-0.2371448	0.7604559	1.062204	-0.2536938	0.7019972	1.184591	-0.3544116	0.6523187	1.209606	-0.3860156	0.6957073	1.214617	-0.4087918	0.6779043	1.256749	-0.4372962	0.6711389	1.275178	-0.4436181	0.6591323	1.262391	-0.4120916
140	1.39	0.4299108	1.289208	-0.09021336	0.4344806	1.150289	-0.05995673	0.4468284	1.232518	-0.2160886	0.4522171	1.101666	-0.3215452	0.5875199	1.267296	-0.1566468	0.7153018	1.135863	-0.2390102	0.7628242	1.068502	-0.2569643	0.7019716	1.19135	-0.355706	0.6518906	1.215684	-0.3874883	0.6954566	1.222407	-0.4094372	0.6768028	1.264755	-0.437094	0.6695662	1.283129	-0.4429923	0.6575401	1.269182	-0.4119827
141	1.4	0.4296438	1.289132	-0.09013368	0.4344785	1.150243	-0.06004314	0.4463839	1.232666	-0.2161263	0.4518095	1.101976	-0.321589	0.5867822	1.267984	-0.1568173	0.7162976	1.140669	-0.2407399	0.7650944	1.074775	-0.2599829	0.7018633	1.197855	-0.3569372	0.6514047	1.221494	-0.3889397	0.6951155	1.229863	-0.4100509	0.675599	1.272345	-0.4368969	0.6679104	1.290638	-0.442392	0.6559151	1.275586	-0.4119149
142	1.41	0.4294193	1.289061	-0.0900592	0.4345185	1.150202	-0.06012558	0.4459434	1.232812	-0.2161636	0.4513715	1.102282	-0.3216314	0.5860565	1.268666	-0.1570292	0.7172193	1.1454	-0.2423412	0.7672566	1.080986	-0.2627652	0.7016787	1.204105	-0.3581098	0.6508692	1.227036	-0.390368	0.6946928	1.236988	-0.4106378	0.6743053	1.27953	-0.4367083	0.6661828	1.297718	-0.441822	0.6542636	1.281616	-0.4118908
143	1.42	0.4292359	1.288993	-0.08998579	0.4346015	1.150162	-0.06019787	0.4455104	1.232957	-0.2161968	0.4509016	1.102581	-0.3216724	0.5853508	1.26934	-0.1572752	0.7180631	1.150036	-0.2438228	0.7693017	1.087107	-0.2653278	0.7014237	1.210099	-0.3592283	0.6502925	1.232314	-0.3917715	0.6941949	1.243791	-0.4112016	0.6729326	1.286326	-0.4365298	0.6643912	1.304387	-0.4412846	0.6525914	1.287289	-0.4119102
144	1.43	0.4290898	1.288929	-0.08991025	0.4347273	1.150122	-0.06025589	0.4450886	1.233101	-0.2162236	0.4504013	1.102868	-0.3217137	0.5846697	1.270005	-0.1575469	0.7188265	1.15456	-0.2451948	0.771222	1.09311	-0.2676876	0.7011033	1.21584	-0.3602982	0.6496822	1.237335	-0.3931488	0.6936265	1.250279	-0.4117461	0.6714906	1.29275	-0.436363	0.6625414	1.310665	-0.4407814	0.6509043	1.29262	-0.4119708
145	1.44	0.428976	1.288866	-0.08983054	0.434893	1.15008	-0.06029838	0.4446812	1.233244	-0.2162427	0.4498751	1.103138	-0.3217573	0.5840148	1.270661	-0.1578357	0.7195091	1.158958	-0.2464672	0.7730113	1.098975	-0.2698621	0.7007216	1.22133	-0.3613255	0.6490445	1.242104	-0.3944988	0.6929909	1.25646	-0.4122751	0.6699873	1.298819	-0.4362097	0.6606393	1.316572	-0.4403135	0.6492075	1.297625	-0.4120688
